<svg xmlns="http://www.w3.org/2000/svg" viewBox="0 0 368.16 85.51"><defs><style>.a{fill:#515456;}.b{fill:#1d191a;}.c{fill:#b6d9e9;}.d{fill:#0a456e;}.e{fill:#2d97bc;}</style></defs><title>logo</title><path class="a" d="M102.53,45.62a39.31,39.31,0,0,1,4.79-.55q3.08-.21,6.23-.21a34.34,34.34,0,0,1,7.12.69,15.63,15.63,0,0,1,5.51,2.23,10.66,10.66,0,0,1,3.56,4A12.7,12.7,0,0,1,131,57.68a11.54,11.54,0,0,1-2.4,7.16,10.22,10.22,0,0,1-2.53,2.33,10.61,10.61,0,0,1-2.95,1.34,13.74,13.74,0,0,1,3.87,1,11.29,11.29,0,0,1,6.1,6.13,14,14,0,0,1,1,5.58A13.47,13.47,0,0,1,132.53,88a12.61,12.61,0,0,1-4.28,4.49,18.94,18.94,0,0,1-6.37,2.47,38.94,38.94,0,0,1-7.84.75q-2.6,0-5.69-.24t-5.82-.58Zm11.92,20.55q4.66,0,7.12-2T124,58.09a6.73,6.73,0,0,0-2.64-5.82,12,12,0,0,0-7.16-1.92q-1.37,0-2.64.07t-2.16.21V66.17Zm-5,23.29q1,.14,2.43.21t2.91.07a24.71,24.71,0,0,0,4.62-.41,11.42,11.42,0,0,0,3.8-1.4,7.3,7.3,0,0,0,2.6-2.67,8.55,8.55,0,0,0,1-4.28,9.36,9.36,0,0,0-.89-4.28,7.46,7.46,0,0,0-2.43-2.81,10,10,0,0,0-3.66-1.51,22.4,22.4,0,0,0-4.59-.45h-5.75Z" transform="translate(-17.89 -10.19)"/><path class="a" d="M139.55,59.73a16.11,16.11,0,0,1,1.71-.21q1-.07,1.64-.07t1.71.07a16.18,16.18,0,0,1,1.71.21V79a20.22,20.22,0,0,0,.62,5.45,7.67,7.67,0,0,0,1.85,3.39,6.59,6.59,0,0,0,3,1.71,15.85,15.85,0,0,0,4.11.48,20.54,20.54,0,0,0,6-.75V59.73a16.16,16.16,0,0,1,1.68-.21q.92-.07,1.68-.07t1.68.07a16.21,16.21,0,0,1,1.68.21v34q-2.4.69-5.72,1.3a37.7,37.7,0,0,1-6.88.62,33,33,0,0,1-6.34-.58,12,12,0,0,1-5.24-2.36,11.83,11.83,0,0,1-3.56-5,23,23,0,0,1-1.3-8.49Z" transform="translate(-17.89 -10.19)"/><path class="a" d="M178,65.07h-4.45a8.45,8.45,0,0,1-.21-1.27q-.07-.72-.07-1.4c0-.46,0-.92.07-1.4a8.45,8.45,0,0,1,.21-1.27h11.1V94.87a16.34,16.34,0,0,1-1.68.21q-.93.07-1.68.07t-1.61-.07a16.27,16.27,0,0,1-1.68-.21ZM176.49,52a13.67,13.67,0,0,1-.17-1.78c0-.64,0-1.21,0-1.71s0-1.07,0-1.71a11.93,11.93,0,0,1,.17-1.71q.89-.14,1.92-.21t1.78-.07q.75,0,1.78.07t1.85.21a12.19,12.19,0,0,1,.17,1.71q0,1,0,1.71t0,1.71a14,14,0,0,1-.17,1.78q-.82.14-1.82.21t-1.75.07q-.82,0-1.85-.07T176.49,52Z" transform="translate(-17.89 -10.19)"/><path class="a" d="M192.24,44.66a16.13,16.13,0,0,1,1.68-.21q.92-.07,1.68-.07t1.68.07a16.17,16.17,0,0,1,1.68.21v39.6a10.49,10.49,0,0,0,.34,3,4,4,0,0,0,.93,1.68,2.7,2.7,0,0,0,1.37.75,7.83,7.83,0,0,0,1.68.17q.62,0,1.4-.07A8.47,8.47,0,0,0,206,89.6a20.86,20.86,0,0,1,.62,5.21,9,9,0,0,1-2.33.45q-1.37.1-2.53.1a13.7,13.7,0,0,1-3.7-.48,7.91,7.91,0,0,1-3-1.58A7.4,7.4,0,0,1,193,90.35a12.19,12.19,0,0,1-.75-4.59Z" transform="translate(-17.89 -10.19)"/><path class="a" d="M232.28,44.66a16,16,0,0,1,1.71-.21q1-.07,1.64-.07t1.68.07a16.19,16.19,0,0,1,1.68.21V93.92a48.61,48.61,0,0,1-5.82,1.27,45.91,45.91,0,0,1-7.19.51,26.09,26.09,0,0,1-7-.92,14.34,14.34,0,0,1-9.69-8.53A21.08,21.08,0,0,1,207.82,78a22.54,22.54,0,0,1,1.27-7.74,17.37,17.37,0,0,1,3.6-6,16,16,0,0,1,5.58-3.87A18.45,18.45,0,0,1,225.5,59a24.14,24.14,0,0,1,3.6.27,23.4,23.4,0,0,1,3.19.69Zm0,21a14.8,14.8,0,0,0-2.95-.82,20.08,20.08,0,0,0-3.43-.27,10.75,10.75,0,0,0-4.86,1,9.46,9.46,0,0,0-3.39,2.81,12.21,12.21,0,0,0-2,4.21A20.48,20.48,0,0,0,215,78q.07,6.51,3.08,9.32t8.22,2.81a29.2,29.2,0,0,0,3.29-.17,15.81,15.81,0,0,0,2.67-.51Z" transform="translate(-17.89 -10.19)"/><path class="b" d="M245.91,87.41a47.7,47.7,0,0,0,4.73,1.44,25.26,25.26,0,0,0,6,.62q5.62,0,8.39-2.3a7.62,7.62,0,0,0,2.77-6.2,8.41,8.41,0,0,0-.58-3.29,6.35,6.35,0,0,0-1.75-2.36,13.05,13.05,0,0,0-2.91-1.82q-1.75-.82-4.08-1.78l-3.91-1.58A26.86,26.86,0,0,1,251,68.33a11.2,11.2,0,0,1-2.84-2.43,11,11,0,0,1-1.88-3.32,13.13,13.13,0,0,1-.69-4.49,12,12,0,0,1,4.25-9.76q4.25-3.53,11.92-3.53a34.09,34.09,0,0,1,6.23.55,33,33,0,0,1,5.21,1.37,21.48,21.48,0,0,1-1.51,5.69,34,34,0,0,0-4.28-1.23,25.18,25.18,0,0,0-5.51-.55,10.91,10.91,0,0,0-6.64,1.75,6.13,6.13,0,0,0-2.33,5.24,5.53,5.53,0,0,0,.58,2.57,6.81,6.81,0,0,0,1.54,2,11.12,11.12,0,0,0,2.26,1.54A24.77,24.77,0,0,0,260,64.94l3.84,1.51a40.74,40.74,0,0,1,4.86,2.29,15.12,15.12,0,0,1,3.63,2.81,10.89,10.89,0,0,1,2.3,3.8,15.23,15.23,0,0,1,.79,5.14q0,7.06-4.86,11.13T256.94,95.7q-2.12,0-3.84-.14a31.24,31.24,0,0,1-3.19-.41,27.35,27.35,0,0,1-2.84-.68q-1.37-.41-2.81-.89a15.35,15.35,0,0,1,.62-3.08Q245.36,88.92,245.91,87.41Z" transform="translate(-17.89 -10.19)"/><path class="b" d="M281.4,65.14h-5.34l-.27-1L287.56,51h.55v8.7H297a11.45,11.45,0,0,1,.27,2.6c0,.5,0,1-.07,1.44s-.11.91-.21,1.37h-8.91v16a34.45,34.45,0,0,0,.24,4.59,6.75,6.75,0,0,0,.82,2.64,2.8,2.8,0,0,0,1.58,1.23,8.57,8.57,0,0,0,2.5.31,13.27,13.27,0,0,0,2.19-.17q1-.17,1.85-.38a10.87,10.87,0,0,1,.58,2.81q.1,1.44.1,2.53a22.41,22.41,0,0,1-2.88.51,28.85,28.85,0,0,1-3.22.17q-4.93,0-7.71-2.4t-2.78-7.95Z" transform="translate(-17.89 -10.19)"/><path class="b" d="M306.57,79q.14,5.75,3,8.43t8.39,2.67a25.19,25.19,0,0,0,9.25-1.71,10.39,10.39,0,0,1,.89,2.5,16.37,16.37,0,0,1,.41,2.91,22.9,22.9,0,0,1-5,1.44,34.55,34.55,0,0,1-6,.48,22.64,22.64,0,0,1-8.22-1.34,14.45,14.45,0,0,1-8.9-9.52,24.61,24.61,0,0,1-1-7.3,25.86,25.86,0,0,1,1-7.3,16.43,16.43,0,0,1,3-5.89,14.73,14.73,0,0,1,5.17-4A17.09,17.09,0,0,1,316,58.91a15.39,15.39,0,0,1,6.37,1.23,13,13,0,0,1,4.59,3.39,14.75,14.75,0,0,1,2.81,5.14,21,21,0,0,1,1,6.47q0,1-.07,2T330.47,79ZM324,73.91a12.93,12.93,0,0,0-.51-3.67,9.3,9.3,0,0,0-1.51-3,7.36,7.36,0,0,0-2.53-2.09,8,8,0,0,0-3.66-.79,8.07,8.07,0,0,0-6.41,2.53,12.4,12.4,0,0,0-2.71,7.06Z" transform="translate(-17.89 -10.19)"/><path class="b" d="M342,79q.14,5.75,3,8.43t8.39,2.67a25.19,25.19,0,0,0,9.25-1.71,10.39,10.39,0,0,1,.89,2.5,16.37,16.37,0,0,1,.41,2.91,22.9,22.9,0,0,1-5,1.44,34.55,34.55,0,0,1-6,.48,22.64,22.64,0,0,1-8.22-1.34,14.45,14.45,0,0,1-8.9-9.52,24.61,24.61,0,0,1-1-7.3,25.86,25.86,0,0,1,1-7.3,16.43,16.43,0,0,1,3-5.89,14.73,14.73,0,0,1,5.17-4,17.09,17.09,0,0,1,7.36-1.47,15.39,15.39,0,0,1,6.37,1.23,13,13,0,0,1,4.59,3.39,14.75,14.75,0,0,1,2.81,5.14,21,21,0,0,1,1,6.47q0,1-.07,2T365.88,79Zm17.4-5.07a12.93,12.93,0,0,0-.51-3.67,9.3,9.3,0,0,0-1.51-3,7.36,7.36,0,0,0-2.53-2.09,8,8,0,0,0-3.66-.79,8.07,8.07,0,0,0-6.41,2.53A12.4,12.4,0,0,0,342,73.91Z" transform="translate(-17.89 -10.19)"/><path class="b" d="M371.67,44.66a16.13,16.13,0,0,1,1.68-.21q.92-.07,1.68-.07t1.68.07a16.15,16.15,0,0,1,1.68.21v39.6a10.49,10.49,0,0,0,.34,3,4,4,0,0,0,.93,1.68,2.7,2.7,0,0,0,1.37.75,7.83,7.83,0,0,0,1.68.17q.62,0,1.4-.07a8.46,8.46,0,0,0,1.34-.21,20.86,20.86,0,0,1,.62,5.21,9,9,0,0,1-2.33.45q-1.37.1-2.53.1a13.7,13.7,0,0,1-3.7-.48,7.91,7.91,0,0,1-3-1.58,7.4,7.4,0,0,1-2.06-2.95,12.19,12.19,0,0,1-.75-4.59Z" transform="translate(-17.89 -10.19)"/><polygon class="c" points="19.15 15.48 27.47 9.06 27.47 15.3 32.93 19.51 32.93 8.93 41.52 15.57 41.52 26.14 46.98 30.35 46.98 12.88 30.29 0 13.69 12.79 13.69 49.37 19.15 45.16 19.15 15.48"/><path class="d" d="M45.46,29.37V48.86l5.46-4.21V40.47l8.28,6.38V89.69H54v5.46H78.38V54.76ZM72.93,89.69H64.65V51.06l8.28,6.38Z" transform="translate(-17.89 -10.19)"/><path class="e" d="M17.89,95.05H50.82V48.53L17.89,73.93ZM45.36,89.6H37.09V66l8.28-6.38Zm-22-13,8.28-6.38V89.6H23.35Z" transform="translate(-17.89 -10.19)"/></svg>